M48
;GenerationSoftware,Autodesk,EAGLE,9.0.1*%
;CreationDate,2018-06-29T20:11:21Z*%
FMAT,2
ICI,OFF
METRIC,TZ,000.000
T13C0.400
T12C0.508
T11C0.700
T10C0.800
T9C0.813
T8C0.900
T7C0.965
T6C1.016
T5C1.118
T4C1.270
T3C2.200
T2C2.997
T1C4.191
%
G90
M71
T1
X182880Y12700
X182880Y114300
X5080Y114300
X5080Y12700
T2
X145670Y6890
X140970Y3890
X140970Y9890
T3
X196850Y46990
X20320Y119380
X196850Y36830
X196850Y59690
X196850Y69850
X196850Y82550
X196850Y92710
X196850Y105410
X196850Y115570
X109220Y119380
X99060Y119380
X134620Y119380
X124460Y119380
X160020Y119380
X149860Y119380
X55880Y119380
X45720Y119380
X196850Y13970
X196850Y24130
X30480Y119380
T4
X2540Y45720
X2540Y34290
X2540Y38100
X2540Y41910
X2540Y72390
X2540Y49530
X2540Y53340
X2540Y57150
X2540Y60960
X2540Y64770
X2540Y68580
X2540Y76200
X2540Y80010
X2540Y83820
X5080Y91440
X5080Y87630
X5080Y83820
X5080Y80010
X5080Y76200
X5080Y72390
X5080Y68580
X5080Y64770
X5080Y60960
X5080Y57150
X5080Y53340
X5080Y49530
X5080Y45720
X5080Y41910
X5080Y38100
X5080Y34290
X2540Y91440
X2540Y87630
T5
X113030Y15240
X102870Y15240
X96520Y15240
X86360Y15240
T6
X62230Y17780
X81280Y8890
X59690Y17780
X53340Y17780
X50800Y17780
X120650Y8890
X118110Y8890
X110490Y20320
X107950Y20320
X144907Y67310
X105410Y20320
X109220Y8890
X142113Y67310
X109220Y73533
X106680Y8890
X78740Y8890
X109220Y76327
X40640Y21590
X93980Y20320
X91440Y20320
X88900Y20320
X92710Y8890
X90170Y8890
X168910Y60960
X168910Y58420
X168910Y86360
X168910Y83820
X168910Y73660
X168910Y71120
X83820Y66040
X83820Y63500
X81280Y66040
X81280Y63500
X78740Y66040
X78740Y63500
X76200Y66040
X76200Y63500
X83820Y87630
X83820Y85090
X81280Y87630
X81280Y85090
X78740Y87630
X78740Y85090
X76200Y87630
X76200Y85090
X22860Y19050
X22860Y21590
X25400Y19050
X40640Y19050
X38100Y21590
X25400Y21590
X27940Y19050
X38100Y19050
X35560Y21590
X27940Y21590
X30480Y19050
X35560Y19050
X33020Y21590
X30480Y21590
X33020Y19050
T7
X46990Y55880
X46990Y58420
X46990Y60960
X46990Y63500
X46990Y66040
X46990Y68580
X46990Y71120
X46990Y73660
X46990Y76200
X46990Y78740
X46990Y81280
X46990Y83820
X46990Y86360
X46990Y88900
X31750Y88900
X31750Y86360
X31750Y55880
X31750Y83820
X31750Y58420
X31750Y60960
X31750Y63500
X31750Y66040
X31750Y68580
X31750Y71120
X31750Y73660
X31750Y76200
X31750Y78740
X31750Y81280
T8
X152400Y82550
X101600Y33020
X71120Y39370
X162560Y82550
X162560Y95250
X162560Y66040
X162560Y78740
X149860Y60960
X149860Y48260
X127000Y60960
X127000Y48260
X137160Y60960
X137160Y48260
X121920Y60960
X121920Y48260
X132080Y60960
X114300Y33020
X152400Y95250
X60960Y52070
X132080Y48260
X60960Y39370
X97790Y26670
X85090Y26670
X144780Y60960
X144780Y48260
X101600Y26670
X85090Y33020
X97790Y33020
X66040Y52070
X66040Y39370
X114300Y26670
X71120Y52070
T9
X147320Y71120
X114300Y78740
X116840Y78740
X119380Y78740
X121920Y78740
X124460Y78740
X137160Y71120
X139700Y71120
X152400Y71120
X152400Y78740
X142240Y71120
X144780Y71120
X149860Y71120
X127000Y78740
X149860Y78740
X147320Y78740
X144780Y78740
X142240Y78740
X139700Y78740
X137160Y78740
X114300Y71120
X116840Y71120
X129540Y71120
X129540Y78740
X119380Y71120
X121920Y71120
X127000Y71120
X124460Y71120
T10
X191770Y41910
X22860Y114300
X25400Y114300
X191770Y21590
X191770Y19050
X101600Y114300
X191770Y113030
X191770Y110490
X129540Y114300
X127000Y114300
X191770Y90170
X191770Y87630
X154940Y114300
X152400Y114300
X191770Y67310
X191770Y64770
X50800Y114300
X48260Y114300
X191770Y44450
X104140Y114300
T11
X125730Y87630
X128270Y87630
X134620Y87630
X137160Y87630
X71120Y35560
X71120Y33020
X66040Y35560
X66040Y33020
X60960Y35560
X60960Y33020
T12
X118110Y100330
X72390Y82550
X59690Y26670
X71120Y72390
X39319Y25400
X30480Y27940
X38100Y26670
X148590Y102870
X24130Y39370
X25400Y109220
X10160Y82550
X53340Y24130
X8890Y82550
X10160Y76200
X12700Y73660
X25400Y39370
X16510Y63500
X12700Y59690
X157480Y74930
X34290Y26670
X13970Y73660
X52070Y25400
X49530Y107950
X15240Y68580
X10160Y63500
X29210Y27940
X19050Y78740
X13970Y69850
X123190Y106680
X12700Y81280
X31750Y34290
T13
X185420Y100330
X116840Y101600
X93980Y104140
X139700Y99060
X181610Y107950
X184150Y102870
X182880Y105410
M30