G04 EAGLE Gerber X2 export*
%TF.Part,Single*%
%TF.FileFunction,Other,Bottom Soldermask*%
%TF.FilePolarity,Positive*%
%TF.GenerationSoftware,Autodesk,EAGLE,9.0.1*%
%TF.CreationDate,2018-06-29T20:11:25Z*%
G75*
%MOMM*%
%FSLAX34Y34*%
%LPD*%
%AMOC8*
5,1,8,0,0,1.08239X$1,22.5*%
G01*
%ADD10C,4.648200*%
%ADD11C,2.057400*%
%ADD12C,1.358800*%
%ADD13C,3.452400*%
%ADD14C,1.600200*%
%ADD15P,2.199416X8X22.500000*%
%ADD16C,1.676400*%
%ADD17C,1.828800*%
%ADD18C,2.032000*%
%ADD19R,1.803400X1.803400*%
%ADD20C,1.803400*%
%ADD21C,1.371600*%
%ADD22C,6.438900*%
%ADD23C,1.066800*%
%ADD24C,0.958800*%

G36*
X1093718Y753336D02*
X1093718Y753336D01*
X1093761Y753347D01*
X1093827Y753353D01*
X1095457Y753765D01*
X1095497Y753783D01*
X1095561Y753801D01*
X1097094Y754489D01*
X1097131Y754514D01*
X1097191Y754543D01*
X1098581Y755487D01*
X1098613Y755518D01*
X1098667Y755556D01*
X1099873Y756727D01*
X1099899Y756764D01*
X1099945Y756811D01*
X1100929Y758173D01*
X1100948Y758214D01*
X1100985Y758268D01*
X1101718Y759781D01*
X1101730Y759824D01*
X1101757Y759884D01*
X1102215Y761501D01*
X1102220Y761546D01*
X1102236Y761610D01*
X1102407Y763282D01*
X1102403Y763330D01*
X1102407Y763409D01*
X1102241Y765081D01*
X1102229Y765124D01*
X1102220Y765190D01*
X1101766Y766807D01*
X1101747Y766848D01*
X1101727Y766911D01*
X1100999Y768425D01*
X1100973Y768461D01*
X1100943Y768520D01*
X1099962Y769885D01*
X1099930Y769916D01*
X1099890Y769969D01*
X1098688Y771143D01*
X1098651Y771168D01*
X1098603Y771213D01*
X1097215Y772160D01*
X1097174Y772178D01*
X1097118Y772214D01*
X1095587Y772906D01*
X1095544Y772917D01*
X1095483Y772943D01*
X1093854Y773358D01*
X1093810Y773361D01*
X1093745Y773376D01*
X1092070Y773502D01*
X1092023Y773498D01*
X1091951Y773500D01*
X1090116Y773295D01*
X1090069Y773281D01*
X1089994Y773269D01*
X1088233Y772709D01*
X1088191Y772686D01*
X1088119Y772660D01*
X1086502Y771767D01*
X1086464Y771737D01*
X1086399Y771697D01*
X1084987Y770506D01*
X1084956Y770469D01*
X1084900Y770417D01*
X1083747Y768973D01*
X1083725Y768931D01*
X1083680Y768869D01*
X1082831Y767228D01*
X1082817Y767182D01*
X1082785Y767113D01*
X1082272Y765338D01*
X1082267Y765290D01*
X1082250Y765215D01*
X1082093Y763375D01*
X1082097Y763331D01*
X1082093Y763266D01*
X1082253Y761435D01*
X1082266Y761389D01*
X1082274Y761328D01*
X1082274Y761326D01*
X1082276Y761313D01*
X1082790Y759549D01*
X1082811Y759505D01*
X1082836Y759433D01*
X1083685Y757803D01*
X1083714Y757765D01*
X1083753Y757699D01*
X1084903Y756266D01*
X1084939Y756234D01*
X1084990Y756177D01*
X1086398Y754996D01*
X1086439Y754972D01*
X1086500Y754926D01*
X1088112Y754042D01*
X1088157Y754027D01*
X1088226Y753993D01*
X1089979Y753441D01*
X1090026Y753435D01*
X1090100Y753415D01*
X1091927Y753216D01*
X1091973Y753219D01*
X1092042Y753213D01*
X1093718Y753336D01*
G37*
G36*
X1093718Y725345D02*
X1093718Y725345D01*
X1093761Y725356D01*
X1093827Y725362D01*
X1095457Y725774D01*
X1095497Y725792D01*
X1095561Y725810D01*
X1097094Y726498D01*
X1097131Y726523D01*
X1097191Y726552D01*
X1098581Y727496D01*
X1098613Y727527D01*
X1098667Y727565D01*
X1099873Y728736D01*
X1099899Y728773D01*
X1099945Y728820D01*
X1100929Y730182D01*
X1100948Y730223D01*
X1100985Y730277D01*
X1101718Y731790D01*
X1101730Y731833D01*
X1101757Y731893D01*
X1102215Y733510D01*
X1102220Y733555D01*
X1102236Y733619D01*
X1102407Y735291D01*
X1102403Y735339D01*
X1102407Y735418D01*
X1102241Y737090D01*
X1102229Y737133D01*
X1102220Y737199D01*
X1101766Y738816D01*
X1101747Y738857D01*
X1101727Y738920D01*
X1100999Y740434D01*
X1100973Y740470D01*
X1100943Y740529D01*
X1099962Y741894D01*
X1099930Y741925D01*
X1099890Y741978D01*
X1098688Y743152D01*
X1098651Y743177D01*
X1098603Y743222D01*
X1097215Y744169D01*
X1097174Y744187D01*
X1097118Y744223D01*
X1095587Y744915D01*
X1095544Y744926D01*
X1095483Y744952D01*
X1093854Y745367D01*
X1093810Y745370D01*
X1093745Y745385D01*
X1092070Y745511D01*
X1092023Y745507D01*
X1091951Y745509D01*
X1090116Y745304D01*
X1090069Y745290D01*
X1089994Y745278D01*
X1088233Y744718D01*
X1088191Y744695D01*
X1088119Y744669D01*
X1086502Y743776D01*
X1086464Y743746D01*
X1086399Y743706D01*
X1084987Y742515D01*
X1084956Y742478D01*
X1084900Y742426D01*
X1083747Y740982D01*
X1083725Y740940D01*
X1083680Y740878D01*
X1082831Y739237D01*
X1082817Y739191D01*
X1082785Y739122D01*
X1082272Y737347D01*
X1082267Y737299D01*
X1082250Y737224D01*
X1082093Y735384D01*
X1082097Y735340D01*
X1082093Y735275D01*
X1082253Y733444D01*
X1082266Y733398D01*
X1082274Y733337D01*
X1082274Y733335D01*
X1082276Y733322D01*
X1082790Y731558D01*
X1082811Y731514D01*
X1082836Y731442D01*
X1083685Y729812D01*
X1083714Y729774D01*
X1083753Y729708D01*
X1084903Y728275D01*
X1084939Y728243D01*
X1084990Y728186D01*
X1086398Y727005D01*
X1086439Y726981D01*
X1086500Y726935D01*
X1088112Y726051D01*
X1088157Y726036D01*
X1088226Y726002D01*
X1089979Y725450D01*
X1090026Y725444D01*
X1090100Y725424D01*
X1091927Y725225D01*
X1091973Y725228D01*
X1092042Y725222D01*
X1093718Y725345D01*
G37*
G36*
X1449060Y662997D02*
X1449060Y662997D01*
X1449125Y662993D01*
X1450956Y663153D01*
X1451002Y663166D01*
X1451078Y663176D01*
X1452842Y663690D01*
X1452886Y663711D01*
X1452958Y663736D01*
X1454588Y664585D01*
X1454626Y664614D01*
X1454692Y664653D01*
X1456125Y665803D01*
X1456157Y665839D01*
X1456214Y665890D01*
X1457395Y667298D01*
X1457419Y667339D01*
X1457465Y667400D01*
X1458010Y668393D01*
X1458349Y669012D01*
X1458364Y669057D01*
X1458398Y669126D01*
X1458950Y670879D01*
X1458956Y670926D01*
X1458976Y671000D01*
X1459176Y672827D01*
X1459172Y672873D01*
X1459178Y672942D01*
X1459055Y674618D01*
X1459044Y674661D01*
X1459038Y674727D01*
X1458627Y676357D01*
X1458608Y676397D01*
X1458590Y676461D01*
X1457902Y677994D01*
X1457877Y678031D01*
X1457848Y678091D01*
X1456904Y679481D01*
X1456873Y679513D01*
X1456835Y679567D01*
X1455664Y680773D01*
X1455628Y680799D01*
X1455580Y680845D01*
X1454218Y681829D01*
X1454177Y681848D01*
X1454123Y681885D01*
X1452610Y682618D01*
X1452567Y682630D01*
X1452507Y682657D01*
X1450890Y683115D01*
X1450845Y683120D01*
X1450781Y683136D01*
X1449109Y683307D01*
X1449061Y683303D01*
X1448982Y683307D01*
X1447310Y683141D01*
X1447267Y683129D01*
X1447202Y683120D01*
X1445584Y682666D01*
X1445543Y682647D01*
X1445480Y682627D01*
X1443966Y681899D01*
X1443930Y681873D01*
X1443871Y681843D01*
X1442506Y680862D01*
X1442475Y680830D01*
X1442422Y680790D01*
X1441248Y679588D01*
X1441223Y679551D01*
X1441178Y679503D01*
X1440231Y678115D01*
X1440213Y678074D01*
X1440177Y678018D01*
X1439485Y676487D01*
X1439474Y676444D01*
X1439448Y676383D01*
X1439033Y674754D01*
X1439030Y674710D01*
X1439015Y674645D01*
X1438889Y672970D01*
X1438893Y672923D01*
X1438891Y672851D01*
X1439096Y671016D01*
X1439110Y670969D01*
X1439122Y670894D01*
X1439682Y669133D01*
X1439705Y669091D01*
X1439731Y669019D01*
X1440624Y667402D01*
X1440654Y667364D01*
X1440694Y667299D01*
X1441885Y665887D01*
X1441922Y665856D01*
X1441974Y665800D01*
X1443418Y664647D01*
X1443460Y664625D01*
X1443522Y664580D01*
X1445163Y663731D01*
X1445209Y663717D01*
X1445278Y663685D01*
X1447053Y663172D01*
X1447101Y663167D01*
X1447176Y663150D01*
X1449016Y662993D01*
X1449060Y662997D01*
G37*
G36*
X1421069Y662997D02*
X1421069Y662997D01*
X1421134Y662993D01*
X1422965Y663153D01*
X1423011Y663166D01*
X1423087Y663176D01*
X1424851Y663690D01*
X1424895Y663711D01*
X1424967Y663736D01*
X1426597Y664585D01*
X1426635Y664614D01*
X1426701Y664653D01*
X1428134Y665803D01*
X1428166Y665839D01*
X1428223Y665890D01*
X1429404Y667298D01*
X1429428Y667339D01*
X1429474Y667400D01*
X1430019Y668393D01*
X1430358Y669012D01*
X1430373Y669057D01*
X1430407Y669126D01*
X1430959Y670879D01*
X1430965Y670926D01*
X1430985Y671000D01*
X1431185Y672827D01*
X1431181Y672873D01*
X1431187Y672942D01*
X1431064Y674618D01*
X1431053Y674661D01*
X1431047Y674727D01*
X1430636Y676357D01*
X1430617Y676397D01*
X1430599Y676461D01*
X1429911Y677994D01*
X1429886Y678031D01*
X1429857Y678091D01*
X1428913Y679481D01*
X1428882Y679513D01*
X1428844Y679567D01*
X1427673Y680773D01*
X1427637Y680799D01*
X1427589Y680845D01*
X1426227Y681829D01*
X1426186Y681848D01*
X1426132Y681885D01*
X1424619Y682618D01*
X1424576Y682630D01*
X1424516Y682657D01*
X1422899Y683115D01*
X1422854Y683120D01*
X1422790Y683136D01*
X1421118Y683307D01*
X1421070Y683303D01*
X1420991Y683307D01*
X1419319Y683141D01*
X1419276Y683129D01*
X1419211Y683120D01*
X1417593Y682666D01*
X1417552Y682647D01*
X1417489Y682627D01*
X1415975Y681899D01*
X1415939Y681873D01*
X1415880Y681843D01*
X1414515Y680862D01*
X1414484Y680830D01*
X1414431Y680790D01*
X1413257Y679588D01*
X1413232Y679551D01*
X1413187Y679503D01*
X1412240Y678115D01*
X1412222Y678074D01*
X1412186Y678018D01*
X1411494Y676487D01*
X1411483Y676444D01*
X1411457Y676383D01*
X1411042Y674754D01*
X1411039Y674710D01*
X1411024Y674645D01*
X1410898Y672970D01*
X1410902Y672923D01*
X1410900Y672851D01*
X1411105Y671016D01*
X1411119Y670969D01*
X1411131Y670894D01*
X1411691Y669133D01*
X1411714Y669091D01*
X1411740Y669019D01*
X1412633Y667402D01*
X1412663Y667364D01*
X1412703Y667299D01*
X1413894Y665887D01*
X1413931Y665856D01*
X1413983Y665800D01*
X1415427Y664647D01*
X1415469Y664625D01*
X1415531Y664580D01*
X1417172Y663731D01*
X1417218Y663717D01*
X1417287Y663685D01*
X1419062Y663172D01*
X1419110Y663167D01*
X1419185Y663150D01*
X1421025Y662993D01*
X1421069Y662997D01*
G37*
D10*
X1409700Y98900D03*
X1409700Y38900D03*
X1456700Y68900D03*
D11*
X50800Y914400D03*
X50800Y876300D03*
X50800Y838200D03*
X50800Y800100D03*
X50800Y762000D03*
X50800Y723900D03*
X50800Y685800D03*
X50800Y647700D03*
X50800Y609600D03*
X50800Y571500D03*
X50800Y533400D03*
X50800Y495300D03*
X50800Y457200D03*
X50800Y419100D03*
X50800Y381000D03*
X50800Y342900D03*
X25400Y914400D03*
X25400Y876300D03*
X25400Y838200D03*
X25400Y800100D03*
X25400Y762000D03*
X25400Y723900D03*
X25400Y685800D03*
X25400Y647700D03*
X25400Y609600D03*
X25400Y571500D03*
X25400Y533400D03*
X25400Y495300D03*
X25400Y457200D03*
X25400Y419100D03*
X25400Y381000D03*
X25400Y342900D03*
D12*
X228600Y1136968D02*
X228600Y1149032D01*
X254000Y1149032D02*
X254000Y1136968D01*
D13*
X203200Y1193800D03*
X304800Y1193800D03*
D12*
X1911668Y215900D02*
X1923732Y215900D01*
X1923732Y190500D02*
X1911668Y190500D01*
D13*
X1968500Y241300D03*
X1968500Y139700D03*
D14*
X469900Y558800D03*
X469900Y584200D03*
X469900Y609600D03*
X469900Y635000D03*
X469900Y660400D03*
X469900Y685800D03*
X469900Y711200D03*
X469900Y736600D03*
X469900Y762000D03*
X469900Y787400D03*
X469900Y812800D03*
X469900Y838200D03*
X469900Y863600D03*
X469900Y889000D03*
X317500Y889000D03*
X317500Y863600D03*
X317500Y838200D03*
X317500Y812800D03*
X317500Y787400D03*
X317500Y762000D03*
X317500Y736600D03*
X317500Y711200D03*
X317500Y685800D03*
X317500Y660400D03*
X317500Y635000D03*
X317500Y609600D03*
X317500Y584200D03*
X317500Y558800D03*
D12*
X482600Y1136968D02*
X482600Y1149032D01*
X508000Y1149032D02*
X508000Y1136968D01*
D13*
X457200Y1193800D03*
X558800Y1193800D03*
D12*
X1524000Y1149032D02*
X1524000Y1136968D01*
X1549400Y1136968D02*
X1549400Y1149032D01*
D13*
X1498600Y1193800D03*
X1600200Y1193800D03*
D12*
X1270000Y1149032D02*
X1270000Y1136968D01*
X1295400Y1136968D02*
X1295400Y1149032D01*
D13*
X1244600Y1193800D03*
X1346200Y1193800D03*
D12*
X1016000Y1149032D02*
X1016000Y1136968D01*
X1041400Y1136968D02*
X1041400Y1149032D01*
D13*
X990600Y1193800D03*
X1092200Y1193800D03*
D12*
X1911668Y1130300D02*
X1923732Y1130300D01*
X1923732Y1104900D02*
X1911668Y1104900D01*
D13*
X1968500Y1155700D03*
X1968500Y1054100D03*
D12*
X1923732Y901700D02*
X1911668Y901700D01*
X1911668Y876300D02*
X1923732Y876300D01*
D13*
X1968500Y927100D03*
X1968500Y825500D03*
D12*
X1923732Y673100D02*
X1911668Y673100D01*
X1911668Y647700D02*
X1923732Y647700D01*
D13*
X1968500Y698500D03*
X1968500Y596900D03*
D12*
X1923732Y444500D02*
X1911668Y444500D01*
X1911668Y419100D02*
X1923732Y419100D01*
D13*
X1968500Y469900D03*
X1968500Y368300D03*
D15*
X762000Y850900D03*
X762000Y876300D03*
X787400Y850900D03*
X787400Y876300D03*
X812800Y850900D03*
X812800Y876300D03*
X838200Y850900D03*
X838200Y876300D03*
X762000Y635000D03*
X762000Y660400D03*
X787400Y635000D03*
X787400Y660400D03*
X812800Y635000D03*
X812800Y660400D03*
X838200Y635000D03*
X838200Y660400D03*
D16*
X1681480Y711200D02*
X1696720Y711200D01*
X1696720Y736600D02*
X1681480Y736600D01*
X1681480Y838200D02*
X1696720Y838200D01*
X1696720Y863600D02*
X1681480Y863600D01*
X1681480Y584200D02*
X1696720Y584200D01*
X1696720Y609600D02*
X1681480Y609600D01*
X901700Y96520D02*
X901700Y81280D01*
X927100Y81280D02*
X927100Y96520D01*
X889000Y195580D02*
X889000Y210820D01*
X914400Y210820D02*
X914400Y195580D01*
X939800Y195580D02*
X939800Y210820D01*
D17*
X863600Y152400D03*
X965200Y152400D03*
D16*
X787400Y96520D02*
X787400Y81280D01*
X812800Y81280D02*
X812800Y96520D01*
D18*
X977900Y266700D03*
X850900Y266700D03*
D16*
X1066800Y96520D02*
X1066800Y81280D01*
X1092200Y81280D02*
X1092200Y96520D01*
X1054100Y195580D02*
X1054100Y210820D01*
X1079500Y210820D02*
X1079500Y195580D01*
X1104900Y195580D02*
X1104900Y210820D01*
D17*
X1028700Y152400D03*
X1130300Y152400D03*
D16*
X1181100Y96520D02*
X1181100Y81280D01*
X1206500Y81280D02*
X1206500Y96520D01*
D18*
X1143000Y266700D03*
X1016000Y266700D03*
D19*
X1371600Y876300D03*
D20*
X1346200Y876300D03*
D19*
X1282700Y876300D03*
D20*
X1257300Y876300D03*
D21*
X1371600Y717296D02*
X1371600Y705104D01*
X1397000Y705104D02*
X1397000Y717296D01*
X1524000Y717296D02*
X1524000Y705104D01*
X1524000Y781304D02*
X1524000Y793496D01*
X1422400Y717296D02*
X1422400Y705104D01*
X1447800Y705104D02*
X1447800Y717296D01*
X1498600Y717296D02*
X1498600Y705104D01*
X1473200Y705104D02*
X1473200Y717296D01*
X1498600Y781304D02*
X1498600Y793496D01*
X1473200Y793496D02*
X1473200Y781304D01*
X1447800Y781304D02*
X1447800Y793496D01*
X1422400Y793496D02*
X1422400Y781304D01*
X1397000Y781304D02*
X1397000Y793496D01*
X1371600Y793496D02*
X1371600Y781304D01*
X1143000Y717296D02*
X1143000Y705104D01*
X1168400Y705104D02*
X1168400Y717296D01*
X1295400Y717296D02*
X1295400Y705104D01*
X1295400Y781304D02*
X1295400Y793496D01*
X1193800Y717296D02*
X1193800Y705104D01*
X1219200Y705104D02*
X1219200Y717296D01*
X1270000Y717296D02*
X1270000Y705104D01*
X1244600Y705104D02*
X1244600Y717296D01*
X1270000Y781304D02*
X1270000Y793496D01*
X1244600Y793496D02*
X1244600Y781304D01*
X1219200Y781304D02*
X1219200Y793496D01*
X1193800Y793496D02*
X1193800Y781304D01*
X1168400Y781304D02*
X1168400Y793496D01*
X1143000Y793496D02*
X1143000Y781304D01*
D18*
X1447800Y482600D03*
X1447800Y609600D03*
X1320800Y482600D03*
X1320800Y609600D03*
X1219200Y482600D03*
X1219200Y609600D03*
X1371600Y482600D03*
X1371600Y609600D03*
X1270000Y482600D03*
X1270000Y609600D03*
X1498600Y482600D03*
X1498600Y609600D03*
X1625600Y787400D03*
X1625600Y660400D03*
X1625600Y952500D03*
X1625600Y825500D03*
D20*
X711200Y355600D03*
X711200Y330200D03*
X660400Y355600D03*
X660400Y330200D03*
X609600Y355600D03*
X609600Y330200D03*
D18*
X711200Y393700D03*
X711200Y520700D03*
X660400Y393700D03*
X660400Y520700D03*
X609600Y393700D03*
X609600Y520700D03*
X1524000Y952500D03*
X1524000Y825500D03*
D15*
X228600Y190500D03*
X228600Y215900D03*
X254000Y190500D03*
X254000Y215900D03*
X279400Y190500D03*
X279400Y215900D03*
X304800Y190500D03*
X304800Y215900D03*
X330200Y190500D03*
X330200Y215900D03*
X355600Y190500D03*
X355600Y215900D03*
X381000Y190500D03*
X381000Y215900D03*
X406400Y190500D03*
X406400Y215900D03*
D22*
X50800Y127000D03*
X50800Y1143000D03*
X1828800Y1143000D03*
X1828800Y127000D03*
D18*
X850900Y330200D03*
X977900Y330200D03*
X1016000Y330200D03*
X1143000Y330200D03*
X508000Y177800D03*
X533400Y177800D03*
X596900Y177800D03*
X622300Y177800D03*
D23*
X342900Y266700D03*
X127000Y812800D03*
X1231900Y1066800D03*
D24*
X1854200Y1003300D03*
D23*
X190500Y787400D03*
X1181100Y1003300D03*
X723900Y825500D03*
X711200Y723900D03*
D24*
X1841500Y1028700D03*
D23*
X304800Y279400D03*
X1485900Y1028700D03*
X241300Y393700D03*
X254000Y1092200D03*
X101600Y825500D03*
X533400Y241300D03*
X88900Y825500D03*
X101600Y762000D03*
X127000Y736600D03*
X254000Y393700D03*
X165100Y635000D03*
X127000Y596900D03*
X1574800Y749300D03*
D24*
X1828800Y1054100D03*
D23*
X139700Y736600D03*
D24*
X1816100Y1079500D03*
D23*
X495300Y1079500D03*
X152400Y685800D03*
X101600Y635000D03*
D24*
X939800Y1041400D03*
D23*
X317500Y342900D03*
X139700Y698500D03*
D24*
X1168400Y1016000D03*
D23*
X292100Y279400D03*
D24*
X1397000Y990600D03*
D23*
X520700Y254000D03*
X393192Y254000D03*
X596900Y266700D03*
X381000Y266700D03*
M02*
