G04 EAGLE Gerber X2 export*
%TF.Part,Single*%
%TF.FileFunction,Other,Top Soldermask*%
%TF.FilePolarity,Positive*%
%TF.GenerationSoftware,Autodesk,EAGLE,9.0.1*%
%TF.CreationDate,2018-06-29T20:11:24Z*%
G75*
%MOMM*%
%FSLAX34Y34*%
%LPD*%
%AMOC8*
5,1,8,0,0,1.08239X$1,22.5*%
G01*
%ADD10C,4.648200*%
%ADD11C,2.057400*%
%ADD12C,1.358800*%
%ADD13C,3.452400*%
%ADD14C,1.600200*%
%ADD15P,2.199416X8X22.500000*%
%ADD16C,1.676400*%
%ADD17C,1.828800*%
%ADD18C,2.032000*%
%ADD19R,1.803400X1.803400*%
%ADD20C,1.803400*%
%ADD21C,1.371600*%
%ADD22C,6.438900*%
%ADD23C,1.066800*%
%ADD24C,0.958800*%
%ADD25C,0.254000*%

G36*
X1093211Y758391D02*
X1093211Y758391D01*
X1093260Y758405D01*
X1093350Y758421D01*
X1094306Y758737D01*
X1094351Y758761D01*
X1094435Y758797D01*
X1095296Y759318D01*
X1095334Y759351D01*
X1095409Y759404D01*
X1096133Y760104D01*
X1096162Y760145D01*
X1096223Y760214D01*
X1096773Y761057D01*
X1096793Y761103D01*
X1096837Y761184D01*
X1097185Y762128D01*
X1097194Y762178D01*
X1097219Y762266D01*
X1097349Y763264D01*
X1097347Y763307D01*
X1097348Y763433D01*
X1097209Y764444D01*
X1097193Y764492D01*
X1097174Y764582D01*
X1096812Y765537D01*
X1096786Y765580D01*
X1096748Y765664D01*
X1096183Y766514D01*
X1096148Y766551D01*
X1096091Y766623D01*
X1095352Y767327D01*
X1095309Y767355D01*
X1095238Y767413D01*
X1094360Y767934D01*
X1094313Y767952D01*
X1094231Y767993D01*
X1093259Y768306D01*
X1093209Y768313D01*
X1093120Y768334D01*
X1092102Y768423D01*
X1092052Y768418D01*
X1091961Y768419D01*
X1090997Y768288D01*
X1090949Y768272D01*
X1090860Y768253D01*
X1089949Y767911D01*
X1089906Y767885D01*
X1089823Y767846D01*
X1089011Y767309D01*
X1088975Y767274D01*
X1088902Y767218D01*
X1088230Y766514D01*
X1088203Y766472D01*
X1088144Y766401D01*
X1087646Y765566D01*
X1087628Y765518D01*
X1087588Y765436D01*
X1087288Y764511D01*
X1087281Y764460D01*
X1087259Y764371D01*
X1087173Y763402D01*
X1087177Y763355D01*
X1087174Y763280D01*
X1087276Y762304D01*
X1087290Y762256D01*
X1087306Y762166D01*
X1087622Y761237D01*
X1087647Y761193D01*
X1087683Y761108D01*
X1088197Y760273D01*
X1088231Y760236D01*
X1088285Y760161D01*
X1088973Y759462D01*
X1089014Y759432D01*
X1089083Y759372D01*
X1089910Y758843D01*
X1089956Y758824D01*
X1090037Y758780D01*
X1090960Y758448D01*
X1091010Y758440D01*
X1091099Y758415D01*
X1092073Y758297D01*
X1092123Y758300D01*
X1092209Y758296D01*
X1093211Y758391D01*
G37*
G36*
X1093211Y730400D02*
X1093211Y730400D01*
X1093260Y730414D01*
X1093350Y730430D01*
X1094306Y730746D01*
X1094351Y730770D01*
X1094435Y730806D01*
X1095296Y731327D01*
X1095334Y731360D01*
X1095409Y731413D01*
X1096133Y732113D01*
X1096162Y732154D01*
X1096223Y732223D01*
X1096773Y733066D01*
X1096793Y733112D01*
X1096837Y733193D01*
X1097185Y734137D01*
X1097194Y734187D01*
X1097219Y734275D01*
X1097349Y735273D01*
X1097347Y735316D01*
X1097348Y735442D01*
X1097209Y736453D01*
X1097193Y736501D01*
X1097174Y736591D01*
X1096812Y737546D01*
X1096786Y737589D01*
X1096748Y737673D01*
X1096183Y738523D01*
X1096148Y738560D01*
X1096091Y738632D01*
X1095352Y739336D01*
X1095309Y739364D01*
X1095238Y739422D01*
X1094360Y739943D01*
X1094313Y739961D01*
X1094231Y740002D01*
X1093259Y740315D01*
X1093209Y740322D01*
X1093120Y740343D01*
X1092102Y740432D01*
X1092052Y740427D01*
X1091961Y740428D01*
X1090997Y740297D01*
X1090949Y740281D01*
X1090860Y740262D01*
X1089949Y739920D01*
X1089906Y739894D01*
X1089823Y739855D01*
X1089011Y739318D01*
X1088975Y739283D01*
X1088902Y739227D01*
X1088230Y738523D01*
X1088203Y738481D01*
X1088144Y738410D01*
X1087646Y737575D01*
X1087628Y737527D01*
X1087588Y737445D01*
X1087288Y736520D01*
X1087281Y736469D01*
X1087259Y736380D01*
X1087173Y735411D01*
X1087177Y735364D01*
X1087174Y735289D01*
X1087276Y734313D01*
X1087290Y734265D01*
X1087306Y734175D01*
X1087622Y733246D01*
X1087647Y733202D01*
X1087683Y733117D01*
X1088197Y732282D01*
X1088231Y732245D01*
X1088285Y732170D01*
X1088973Y731471D01*
X1089014Y731441D01*
X1089083Y731381D01*
X1089910Y730852D01*
X1089956Y730833D01*
X1090037Y730789D01*
X1090960Y730457D01*
X1091010Y730449D01*
X1091099Y730424D01*
X1092073Y730306D01*
X1092123Y730309D01*
X1092209Y730305D01*
X1093211Y730400D01*
G37*
G36*
X1449036Y668077D02*
X1449036Y668077D01*
X1449111Y668074D01*
X1450087Y668176D01*
X1450135Y668190D01*
X1450225Y668206D01*
X1451154Y668522D01*
X1451198Y668547D01*
X1451283Y668583D01*
X1452118Y669097D01*
X1452155Y669131D01*
X1452230Y669185D01*
X1452930Y669873D01*
X1452959Y669914D01*
X1453019Y669983D01*
X1453548Y670810D01*
X1453567Y670856D01*
X1453611Y670937D01*
X1453943Y671860D01*
X1453951Y671910D01*
X1453976Y671999D01*
X1454094Y672973D01*
X1454091Y673023D01*
X1454095Y673109D01*
X1454000Y674111D01*
X1453986Y674160D01*
X1453970Y674250D01*
X1453654Y675206D01*
X1453630Y675251D01*
X1453595Y675335D01*
X1453073Y676196D01*
X1453040Y676234D01*
X1452987Y676309D01*
X1452287Y677033D01*
X1452246Y677062D01*
X1452177Y677123D01*
X1451334Y677673D01*
X1451288Y677693D01*
X1451207Y677737D01*
X1450263Y678085D01*
X1450213Y678094D01*
X1450125Y678119D01*
X1449127Y678249D01*
X1449084Y678247D01*
X1448958Y678248D01*
X1447947Y678109D01*
X1447899Y678093D01*
X1447809Y678074D01*
X1446854Y677712D01*
X1446811Y677686D01*
X1446727Y677648D01*
X1445877Y677083D01*
X1445840Y677048D01*
X1445768Y676991D01*
X1445064Y676252D01*
X1445036Y676209D01*
X1444978Y676138D01*
X1444457Y675260D01*
X1444439Y675213D01*
X1444398Y675131D01*
X1444085Y674159D01*
X1444078Y674109D01*
X1444057Y674020D01*
X1443968Y673002D01*
X1443973Y672952D01*
X1443972Y672861D01*
X1444103Y671897D01*
X1444119Y671849D01*
X1444138Y671760D01*
X1444480Y670849D01*
X1444506Y670806D01*
X1444545Y670723D01*
X1445082Y669911D01*
X1445117Y669875D01*
X1445173Y669802D01*
X1445877Y669130D01*
X1445919Y669103D01*
X1445990Y669044D01*
X1446826Y668546D01*
X1446873Y668528D01*
X1446955Y668488D01*
X1447881Y668188D01*
X1447931Y668181D01*
X1448020Y668159D01*
X1448989Y668073D01*
X1449036Y668077D01*
G37*
G36*
X1421045Y668077D02*
X1421045Y668077D01*
X1421120Y668074D01*
X1422096Y668176D01*
X1422144Y668190D01*
X1422234Y668206D01*
X1423163Y668522D01*
X1423207Y668547D01*
X1423292Y668583D01*
X1424127Y669097D01*
X1424164Y669131D01*
X1424239Y669185D01*
X1424939Y669873D01*
X1424968Y669914D01*
X1425028Y669983D01*
X1425557Y670810D01*
X1425576Y670856D01*
X1425620Y670937D01*
X1425952Y671860D01*
X1425960Y671910D01*
X1425985Y671999D01*
X1426103Y672973D01*
X1426100Y673023D01*
X1426104Y673109D01*
X1426009Y674111D01*
X1425995Y674160D01*
X1425979Y674250D01*
X1425663Y675206D01*
X1425639Y675251D01*
X1425604Y675335D01*
X1425082Y676196D01*
X1425049Y676234D01*
X1424996Y676309D01*
X1424296Y677033D01*
X1424255Y677062D01*
X1424186Y677123D01*
X1423343Y677673D01*
X1423297Y677693D01*
X1423216Y677737D01*
X1422272Y678085D01*
X1422222Y678094D01*
X1422134Y678119D01*
X1421136Y678249D01*
X1421093Y678247D01*
X1420967Y678248D01*
X1419956Y678109D01*
X1419908Y678093D01*
X1419818Y678074D01*
X1418863Y677712D01*
X1418820Y677686D01*
X1418736Y677648D01*
X1417886Y677083D01*
X1417849Y677048D01*
X1417777Y676991D01*
X1417073Y676252D01*
X1417045Y676209D01*
X1416987Y676138D01*
X1416466Y675260D01*
X1416448Y675213D01*
X1416407Y675131D01*
X1416094Y674159D01*
X1416087Y674109D01*
X1416066Y674020D01*
X1415977Y673002D01*
X1415982Y672952D01*
X1415981Y672861D01*
X1416112Y671897D01*
X1416128Y671849D01*
X1416147Y671760D01*
X1416489Y670849D01*
X1416515Y670806D01*
X1416554Y670723D01*
X1417091Y669911D01*
X1417126Y669875D01*
X1417182Y669802D01*
X1417886Y669130D01*
X1417928Y669103D01*
X1417999Y669044D01*
X1418835Y668546D01*
X1418882Y668528D01*
X1418964Y668488D01*
X1419890Y668188D01*
X1419940Y668181D01*
X1420029Y668159D01*
X1420998Y668073D01*
X1421045Y668077D01*
G37*
D10*
X1409700Y98900D03*
X1409700Y38900D03*
X1456700Y68900D03*
D11*
X50800Y914400D03*
X50800Y876300D03*
X50800Y838200D03*
X50800Y800100D03*
X50800Y762000D03*
X50800Y723900D03*
X50800Y685800D03*
X50800Y647700D03*
X50800Y609600D03*
X50800Y571500D03*
X50800Y533400D03*
X50800Y495300D03*
X50800Y457200D03*
X50800Y419100D03*
X50800Y381000D03*
X50800Y342900D03*
X25400Y914400D03*
X25400Y876300D03*
X25400Y838200D03*
X25400Y800100D03*
X25400Y762000D03*
X25400Y723900D03*
X25400Y685800D03*
X25400Y647700D03*
X25400Y609600D03*
X25400Y571500D03*
X25400Y533400D03*
X25400Y495300D03*
X25400Y457200D03*
X25400Y419100D03*
X25400Y381000D03*
X25400Y342900D03*
D12*
X228600Y1136968D02*
X228600Y1149032D01*
X254000Y1149032D02*
X254000Y1136968D01*
D13*
X203200Y1193800D03*
X304800Y1193800D03*
D12*
X1911668Y215900D02*
X1923732Y215900D01*
X1923732Y190500D02*
X1911668Y190500D01*
D13*
X1968500Y241300D03*
X1968500Y139700D03*
D14*
X469900Y558800D03*
X469900Y584200D03*
X469900Y609600D03*
X469900Y635000D03*
X469900Y660400D03*
X469900Y685800D03*
X469900Y711200D03*
X469900Y736600D03*
X469900Y762000D03*
X469900Y787400D03*
X469900Y812800D03*
X469900Y838200D03*
X469900Y863600D03*
X469900Y889000D03*
X317500Y889000D03*
X317500Y863600D03*
X317500Y838200D03*
X317500Y812800D03*
X317500Y787400D03*
X317500Y762000D03*
X317500Y736600D03*
X317500Y711200D03*
X317500Y685800D03*
X317500Y660400D03*
X317500Y635000D03*
X317500Y609600D03*
X317500Y584200D03*
X317500Y558800D03*
D12*
X482600Y1136968D02*
X482600Y1149032D01*
X508000Y1149032D02*
X508000Y1136968D01*
D13*
X457200Y1193800D03*
X558800Y1193800D03*
D12*
X1524000Y1149032D02*
X1524000Y1136968D01*
X1549400Y1136968D02*
X1549400Y1149032D01*
D13*
X1498600Y1193800D03*
X1600200Y1193800D03*
D12*
X1270000Y1149032D02*
X1270000Y1136968D01*
X1295400Y1136968D02*
X1295400Y1149032D01*
D13*
X1244600Y1193800D03*
X1346200Y1193800D03*
D12*
X1016000Y1149032D02*
X1016000Y1136968D01*
X1041400Y1136968D02*
X1041400Y1149032D01*
D13*
X990600Y1193800D03*
X1092200Y1193800D03*
D12*
X1911668Y1130300D02*
X1923732Y1130300D01*
X1923732Y1104900D02*
X1911668Y1104900D01*
D13*
X1968500Y1155700D03*
X1968500Y1054100D03*
D12*
X1923732Y901700D02*
X1911668Y901700D01*
X1911668Y876300D02*
X1923732Y876300D01*
D13*
X1968500Y927100D03*
X1968500Y825500D03*
D12*
X1923732Y673100D02*
X1911668Y673100D01*
X1911668Y647700D02*
X1923732Y647700D01*
D13*
X1968500Y698500D03*
X1968500Y596900D03*
D12*
X1923732Y444500D02*
X1911668Y444500D01*
X1911668Y419100D02*
X1923732Y419100D01*
D13*
X1968500Y469900D03*
X1968500Y368300D03*
D15*
X762000Y850900D03*
X762000Y876300D03*
X787400Y850900D03*
X787400Y876300D03*
X812800Y850900D03*
X812800Y876300D03*
X838200Y850900D03*
X838200Y876300D03*
X762000Y635000D03*
X762000Y660400D03*
X787400Y635000D03*
X787400Y660400D03*
X812800Y635000D03*
X812800Y660400D03*
X838200Y635000D03*
X838200Y660400D03*
D16*
X1681480Y711200D02*
X1696720Y711200D01*
X1696720Y736600D02*
X1681480Y736600D01*
X1681480Y838200D02*
X1696720Y838200D01*
X1696720Y863600D02*
X1681480Y863600D01*
X1681480Y584200D02*
X1696720Y584200D01*
X1696720Y609600D02*
X1681480Y609600D01*
X901700Y96520D02*
X901700Y81280D01*
X927100Y81280D02*
X927100Y96520D01*
X889000Y195580D02*
X889000Y210820D01*
X914400Y210820D02*
X914400Y195580D01*
X939800Y195580D02*
X939800Y210820D01*
D17*
X863600Y152400D03*
X965200Y152400D03*
D16*
X787400Y96520D02*
X787400Y81280D01*
X812800Y81280D02*
X812800Y96520D01*
D18*
X977900Y266700D03*
X850900Y266700D03*
D16*
X1066800Y96520D02*
X1066800Y81280D01*
X1092200Y81280D02*
X1092200Y96520D01*
X1054100Y195580D02*
X1054100Y210820D01*
X1079500Y210820D02*
X1079500Y195580D01*
X1104900Y195580D02*
X1104900Y210820D01*
D17*
X1028700Y152400D03*
X1130300Y152400D03*
D16*
X1181100Y96520D02*
X1181100Y81280D01*
X1206500Y81280D02*
X1206500Y96520D01*
D18*
X1143000Y266700D03*
X1016000Y266700D03*
D19*
X1371600Y876300D03*
D20*
X1346200Y876300D03*
D19*
X1282700Y876300D03*
D20*
X1257300Y876300D03*
D21*
X1371600Y717296D02*
X1371600Y705104D01*
X1397000Y705104D02*
X1397000Y717296D01*
X1524000Y717296D02*
X1524000Y705104D01*
X1524000Y781304D02*
X1524000Y793496D01*
X1422400Y717296D02*
X1422400Y705104D01*
X1447800Y705104D02*
X1447800Y717296D01*
X1498600Y717296D02*
X1498600Y705104D01*
X1473200Y705104D02*
X1473200Y717296D01*
X1498600Y781304D02*
X1498600Y793496D01*
X1473200Y793496D02*
X1473200Y781304D01*
X1447800Y781304D02*
X1447800Y793496D01*
X1422400Y793496D02*
X1422400Y781304D01*
X1397000Y781304D02*
X1397000Y793496D01*
X1371600Y793496D02*
X1371600Y781304D01*
X1143000Y717296D02*
X1143000Y705104D01*
X1168400Y705104D02*
X1168400Y717296D01*
X1295400Y717296D02*
X1295400Y705104D01*
X1295400Y781304D02*
X1295400Y793496D01*
X1193800Y717296D02*
X1193800Y705104D01*
X1219200Y705104D02*
X1219200Y717296D01*
X1270000Y717296D02*
X1270000Y705104D01*
X1244600Y705104D02*
X1244600Y717296D01*
X1270000Y781304D02*
X1270000Y793496D01*
X1244600Y793496D02*
X1244600Y781304D01*
X1219200Y781304D02*
X1219200Y793496D01*
X1193800Y793496D02*
X1193800Y781304D01*
X1168400Y781304D02*
X1168400Y793496D01*
X1143000Y793496D02*
X1143000Y781304D01*
D18*
X1447800Y482600D03*
X1447800Y609600D03*
X1320800Y482600D03*
X1320800Y609600D03*
X1219200Y482600D03*
X1219200Y609600D03*
X1371600Y482600D03*
X1371600Y609600D03*
X1270000Y482600D03*
X1270000Y609600D03*
X1498600Y482600D03*
X1498600Y609600D03*
X1625600Y787400D03*
X1625600Y660400D03*
X1625600Y952500D03*
X1625600Y825500D03*
D20*
X711200Y355600D03*
X711200Y330200D03*
X660400Y355600D03*
X660400Y330200D03*
X609600Y355600D03*
X609600Y330200D03*
D18*
X711200Y393700D03*
X711200Y520700D03*
X660400Y393700D03*
X660400Y520700D03*
X609600Y393700D03*
X609600Y520700D03*
X1524000Y952500D03*
X1524000Y825500D03*
D15*
X228600Y190500D03*
X228600Y215900D03*
X254000Y190500D03*
X254000Y215900D03*
X279400Y190500D03*
X279400Y215900D03*
X304800Y190500D03*
X304800Y215900D03*
X330200Y190500D03*
X330200Y215900D03*
X355600Y190500D03*
X355600Y215900D03*
X381000Y190500D03*
X381000Y215900D03*
X406400Y190500D03*
X406400Y215900D03*
D22*
X50800Y127000D03*
X50800Y1143000D03*
X1828800Y1143000D03*
X1828800Y127000D03*
D18*
X850900Y330200D03*
X977900Y330200D03*
X1016000Y330200D03*
X1143000Y330200D03*
X508000Y177800D03*
X533400Y177800D03*
X596900Y177800D03*
X622300Y177800D03*
D23*
X342900Y266700D03*
X127000Y812800D03*
X1231900Y1066800D03*
D24*
X1854200Y1003300D03*
D23*
X190500Y787400D03*
X1181100Y1003300D03*
X723900Y825500D03*
X711200Y723900D03*
D24*
X1841500Y1028700D03*
D23*
X304800Y279400D03*
X1485900Y1028700D03*
X241300Y393700D03*
X254000Y1092200D03*
X101600Y825500D03*
X533400Y241300D03*
X88900Y825500D03*
X101600Y762000D03*
X127000Y736600D03*
X254000Y393700D03*
X165100Y635000D03*
X127000Y596900D03*
X1574800Y749300D03*
D24*
X1828800Y1054100D03*
D23*
X139700Y736600D03*
D24*
X1816100Y1079500D03*
D23*
X495300Y1079500D03*
X152400Y685800D03*
X101600Y635000D03*
D24*
X939800Y1041400D03*
D23*
X317500Y342900D03*
X139700Y698500D03*
D24*
X1168400Y1016000D03*
D23*
X292100Y279400D03*
D24*
X1397000Y990600D03*
D23*
X520700Y254000D03*
X393192Y254000D03*
X596900Y266700D03*
X381000Y266700D03*
D25*
X0Y0D02*
X2032000Y0D01*
X2032000Y1257300D01*
X0Y1257300D01*
X0Y0D01*
M02*
